<?xml version="1.0" standalone="no"?>
<!DOCTYPE svg PUBLIC "-//W3C//DTD SVG 20010904//EN"
 "http://www.w3.org/TR/2001/REC-SVG-20010904/DTD/svg10.dtd">
<svg version="1.0" xmlns="http://www.w3.org/2000/svg"
 width="225.000000pt" height="225.000000pt" viewBox="0 0 225.000000 225.000000"
 preserveAspectRatio="xMidYMid meet">
<metadata>
Created by potrace 1.14, written by Peter Selinger 2001-2017
</metadata>
<g transform="translate(0.000000,225.000000) scale(0.100000,-0.100000)"
fill="#000000" stroke="none">
<path d="M346 2239 c-120 -29 -241 -131 -303 -255 l-38 -78 0 -781 0 -781 38
-78 c51 -101 122 -172 223 -223 l78 -38 781 0 781 0 78 38 c101 51 172 122
223 223 l38 78 0 781 0 781 -38 78 c-51 101 -122 172 -223 223 l-78 38 -760 2
c-439 1 -777 -3 -800 -8z m812 -271 c-8 -13 -21 -34 -28 -47 l-12 -24 -24 39
c-13 21 -24 42 -24 47 0 4 23 7 51 7 51 0 51 0 37 -22z m-93 -48 c21 -22 44
-40 49 -40 6 0 29 19 52 41 l42 42 319 -132 c175 -73 322 -136 326 -141 5 -4
2 -21 -6 -36 -33 -65 -32 -68 33 -99 l60 -29 0 -406 0 -407 -56 -12 -56 -13 6
-41 c3 -23 8 -51 11 -62 5 -18 -27 -33 -317 -151 l-323 -132 -42 41 -43 41
-44 -43 c-32 -32 -50 -42 -63 -37 -10 3 -157 64 -326 134 l-308 127 6 30 c21
98 23 91 -41 107 l-59 14 -3 406 -2 405 60 26 c66 29 70 38 40 96 l-19 38 182
77 c100 42 245 103 322 135 77 33 145 60 150 60 6 1 29 -17 50 -39z m-715
-282 c16 -18 30 -36 30 -39 0 -8 -90 -23 -96 -16 -5 5 26 87 32 87 2 0 18 -15
34 -32z m1582 -14 l16 -47 -45 7 c-26 3 -49 8 -51 11 -6 5 46 75 56 75 4 0 15
-21 24 -46z m-1573 -996 c-12 -24 -23 -44 -24 -46 -4 -5 -55 70 -55 80 0 5 23
8 50 8 l50 0 -21 -42z m1591 37 c0 -3 -12 -24 -26 -46 l-26 -41 -24 38 c-13
22 -24 42 -24 47 0 4 23 7 50 7 28 0 50 -2 50 -5z m-803 -355 l21 -40 -49 0
c-27 0 -49 3 -49 6 0 11 41 74 48 74 4 0 17 -18 29 -40z"/>
<path d="M825 1750 c-153 -65 -281 -122 -282 -127 -2 -6 2 -14 9 -20 30 -23
536 -226 563 -226 31 0 539 206 564 229 11 10 9 15 -10 27 -23 15 -554 238
-561 236 -1 -1 -129 -54 -283 -119z"/>
<path d="M417 1514 c-4 -4 -7 -191 -7 -415 l0 -408 23 -12 c42 -23 591 -249
604 -249 10 0 13 80 13 410 l0 410 -22 14 c-13 8 -149 67 -303 131 -154 64
-285 119 -291 121 -5 3 -13 1 -17 -2z m126 -123 c38 -15 72 -32 76 -37 13 -14
171 -400 196 -476 12 -37 24 -71 28 -74 3 -3 3 79 0 183 -5 190 -8 203 -45
215 -5 2 -8 22 -6 44 l3 41 100 -43 100 -42 3 -42 c3 -40 2 -41 -25 -38 l-28
3 -5 -287 -5 -287 -41 18 -40 18 -108 258 c-59 141 -110 270 -113 286 -3 16
-10 32 -16 36 -7 4 -8 -15 -4 -57 4 -35 7 -125 7 -200 l0 -138 30 -12 c27 -11
30 -17 30 -56 l0 -44 -47 19 c-27 11 -75 31 -108 44 l-60 25 -3 47 c-3 44 -2
46 18 35 11 -6 25 -8 30 -5 6 4 10 100 10 245 l0 239 -30 16 c-26 13 -30 21
-30 55 0 22 4 40 8 40 4 0 38 -13 75 -29z"/>
<path d="M1502 1395 c-161 -68 -299 -128 -307 -135 -13 -11 -15 -73 -15 -421
0 -328 3 -409 13 -409 23 0 610 249 619 262 12 19 5 821 -7 824 -5 1 -142 -53
-303 -121z m162 -41 c13 -5 16 -22 16 -84 l0 -78 -40 -16 c-56 -22 -60 -21
-60 24 0 36 -2 40 -25 40 -64 0 -126 -60 -152 -148 -21 -70 -23 -259 -4 -315
25 -73 87 -85 158 -31 34 26 34 26 31 102 -2 63 -6 76 -18 73 -60 -15 -60 -15
-60 22 0 41 8 48 80 77 30 12 76 30 103 41 l47 19 0 -44 c0 -36 -4 -45 -25
-54 -25 -11 -25 -14 -25 -124 l0 -112 -45 -41 c-63 -59 -164 -107 -229 -109
-106 -2 -147 61 -154 239 -8 214 46 360 166 452 65 49 190 85 236 67z"/>
<path d="M1085 1320 c-14 -22 -25 -44 -25 -50 0 -5 24 -10 55 -10 32 0 55 4
55 11 0 15 -44 89 -52 89 -4 0 -19 -18 -33 -40z"/>
</g>
</svg>
