<?xml version="1.0" standalone="no"?>
<!DOCTYPE svg PUBLIC "-//W3C//DTD SVG 20010904//EN"
 "http://www.w3.org/TR/2001/REC-SVG-20010904/DTD/svg10.dtd">
<svg version="1.0" xmlns="http://www.w3.org/2000/svg"
 width="512.000000pt" height="512.000000pt" viewBox="0 0 512.000000 512.000000"
 preserveAspectRatio="xMidYMid meet">
<metadata>
Created by potrace 1.14, written by Peter Selinger 2001-2017
</metadata>
<g transform="translate(0.000000,512.000000) scale(0.100000,-0.100000)"
fill="#000000" stroke="none">
<path d="M985 4391 c-72 -18 -113 -51 -142 -116 -17 -37 -18 -91 -21 -693 -3
-709 -1 -740 48 -795 26 -30 31 -31 101 -30 72 1 75 2 106 38 21 25 34 53 39
84 4 25 4 253 1 506 -4 325 -3 453 5 435 5 -14 16 -36 23 -50 7 -14 25 -61 40
-105 15 -44 32 -86 37 -92 6 -7 7 -13 3 -13 -4 0 -3 -6 3 -13 7 -7 26 -56 43
-108 17 -52 36 -99 40 -105 5 -6 23 -53 40 -105 17 -51 37 -103 44 -114 7 -11
25 -58 40 -105 36 -109 102 -207 158 -236 39 -21 185 -21 224 -1 39 21 93 82
93 107 0 10 4 22 10 25 12 8 14 1347 2 1373 -48 97 -70 114 -145 116 -66 0
-99 -19 -127 -76 -19 -40 -20 -61 -20 -498 0 -306 3 -459 11 -467 5 -5 9 -37
7 -69 l-3 -59 -19 60 c-11 33 -25 69 -32 80 -7 11 -27 63 -44 115 -17 52 -35
99 -39 105 -5 5 -23 53 -41 105 -18 52 -36 100 -40 105 -4 6 -22 53 -39 105
-18 52 -36 99 -40 105 -5 5 -22 51 -40 100 -38 112 -94 218 -128 245 -28 22
-114 51 -147 49 -12 -1 -34 -4 -51 -8z"/>
<path d="M3655 4371 c-115 -30 -160 -55 -240 -135 -53 -54 -85 -95 -110 -148
-55 -113 -65 -173 -72 -443 -6 -282 10 -450 52 -540 14 -28 25 -56 25 -61 0
-17 85 -121 131 -161 49 -42 150 -95 214 -112 51 -14 305 -14 365 0 99 22 279
144 315 213 6 12 23 40 38 62 57 91 81 244 80 524 0 297 -20 418 -90 545 -45
82 -142 189 -196 216 -115 59 -361 78 -512 40z m294 -270 c9 -5 33 -16 53 -24
38 -16 90 -92 116 -167 45 -129 35 -657 -14 -711 -8 -8 -12 -18 -9 -21 3 -3
-1 -11 -10 -18 -8 -7 -15 -18 -15 -26 0 -17 -55 -59 -106 -80 -53 -23 -204
-22 -259 1 -39 16 -95 61 -95 76 0 4 -13 37 -30 72 -27 58 -31 82 -41 216 -12
173 2 432 25 485 8 17 23 52 34 77 21 50 70 93 117 105 17 4 35 10 40 14 25
20 155 20 194 1z"/>
<path d="M2175 4360 c-11 -4 -31 -20 -45 -35 l-25 -27 0 -730 0 -730 38 -34
37 -35 435 3 435 3 37 37 c32 33 37 44 40 95 4 65 -8 95 -50 127 -27 20 -43
21 -350 26 l-322 5 0 185 0 185 270 5 c231 4 275 7 302 22 51 28 73 68 73 131
0 65 -22 98 -84 127 -37 18 -68 20 -301 22 l-260 3 -3 168 c-2 130 0 167 10
167 7 0 145 1 306 2 l293 3 46 48 c45 48 45 49 41 107 -3 40 -11 66 -24 81
-42 47 -58 49 -481 48 -219 0 -407 -4 -418 -9z"/>
<path d="M1150 2453 c-150 -23 -293 -120 -392 -267 -74 -110 -108 -285 -108
-564 0 -215 40 -462 83 -511 8 -9 22 -31 31 -48 29 -58 137 -165 191 -188 98
-44 181 -58 330 -59 203 0 311 33 422 130 48 42 70 71 93 122 17 37 36 76 43
87 16 26 23 489 8 528 -6 15 -25 36 -43 47 -31 18 -51 20 -276 20 -258 0 -287
-4 -327 -50 -16 -18 -20 -36 -19 -91 0 -67 2 -71 37 -107 l37 -37 150 -3 150
-4 0 -97 c0 -82 -4 -105 -24 -147 -45 -93 -99 -119 -246 -119 -101 1 -107 2
-160 34 -61 37 -67 44 -105 119 -37 72 -55 201 -55 392 0 181 18 301 56 374
35 68 49 82 108 114 45 23 62 26 151 27 94 0 103 -2 146 -29 26 -17 54 -41 62
-55 9 -14 38 -50 64 -78 48 -52 50 -53 106 -53 31 0 67 5 81 12 58 26 84 120
58 213 -21 76 -140 189 -275 262 -49 26 -276 42 -377 26z"/>
<path d="M1971 2450 c-21 -5 -47 -23 -67 -47 -28 -32 -33 -46 -34 -90 0 -28 5
-55 10 -58 6 -3 10 -13 10 -22 0 -9 82 -181 183 -382 l182 -366 5 -304 5 -303
34 -29 c59 -49 154 -51 210 -3 44 37 51 91 51 392 0 182 4 272 11 279 6 6 26
48 45 93 18 46 40 90 47 99 8 9 26 46 42 84 15 37 34 72 42 78 7 6 13 16 13
21 0 5 24 59 54 121 30 62 62 128 70 147 9 19 23 46 31 60 9 15 15 52 15 91 0
62 -2 68 -35 102 -44 46 -105 57 -170 33 -50 -20 -49 -19 -168 -266 -20 -41
-47 -102 -61 -135 -13 -33 -40 -91 -59 -130 l-35 -70 -25 55 c-13 30 -46 100
-72 155 -26 55 -65 137 -86 182 -22 45 -39 85 -39 88 0 3 -18 30 -40 60 -50
68 -90 83 -169 65z"/>
<path d="M3165 2453 c-53 -11 -77 -29 -112 -82 l-38 -56 0 -700 0 -700 23 -33
c46 -63 137 -84 203 -46 65 38 64 31 63 534 l-1 455 24 -100 c13 -55 28 -109
33 -120 5 -11 23 -76 40 -145 17 -69 35 -134 40 -145 6 -11 24 -76 40 -145 17
-69 35 -134 40 -145 4 -11 16 -47 26 -80 21 -72 43 -99 100 -121 57 -22 105
-12 152 31 33 29 41 46 61 127 13 51 28 100 32 108 5 8 25 80 45 160 20 79 40
151 45 160 5 8 23 71 40 140 18 69 35 132 40 140 4 8 12 31 17 50 7 24 10 -94
11 -392 1 -416 2 -428 22 -463 27 -45 69 -67 131 -67 53 0 88 18 115 59 17 25
18 77 21 693 3 726 2 752 -50 818 -45 57 -71 67 -173 67 -111 0 -149 -14 -176
-66 -10 -21 -19 -43 -19 -49 0 -5 -9 -29 -20 -53 -10 -23 -33 -100 -50 -172
-16 -71 -34 -139 -40 -150 -5 -11 -23 -78 -40 -148 -17 -71 -35 -136 -40 -145
-5 -9 -24 -78 -41 -152 l-32 -135 -19 85 c-10 47 -23 93 -28 103 -6 10 -24 75
-41 145 -16 70 -34 136 -39 147 -5 11 -25 85 -45 165 -20 80 -40 154 -45 165
-5 11 -16 47 -25 80 -9 33 -18 68 -21 78 -22 75 -156 125 -269 100z"/>
</g>
</svg>
